<svg width="26" height="26" viewBox="0 0 26 26" fill="none" xmlns="http://www.w3.org/2000/svg">
<path d="M22.7503 1.62508H15.167C15.167 1.33776 15.0529 1.06221 14.8497 0.859049C14.6465 0.655885 14.371 0.541748 14.0837 0.541748H11.917C11.6297 0.541748 11.3541 0.655885 11.151 0.859049C10.9478 1.06221 10.8337 1.33776 10.8337 1.62508H3.25033C2.96301 1.62508 2.68746 1.73922 2.48429 1.94238C2.28113 2.14555 2.16699 2.4211 2.16699 2.70841C2.16699 2.99573 2.28113 3.27128 2.48429 3.47445C2.68746 3.67761 2.96301 3.79175 3.25033 3.79175H22.7503C23.0376 3.79175 23.3132 3.67761 23.5164 3.47445C23.7195 3.27128 23.8337 2.99573 23.8337 2.70841C23.8337 2.4211 23.7195 2.14555 23.5164 1.94238C23.3132 1.73922 23.0376 1.62508 22.7503 1.62508Z" fill="black"/>
<path d="M21.1253 4.875C20.838 4.875 20.5625 4.98914 20.3593 5.1923C20.1561 5.39547 20.042 5.67102 20.042 5.95833V23.2917H5.95866V5.95833C5.95866 5.67102 5.84452 5.39547 5.64136 5.1923C5.43819 4.98914 5.16264 4.875 4.87533 4.875C4.58801 4.875 4.31246 4.98914 4.10929 5.1923C3.90613 5.39547 3.79199 5.67102 3.79199 5.95833V24.375C3.79199 24.6623 3.90613 24.9379 4.10929 25.141C4.31246 25.3442 4.58801 25.4583 4.87533 25.4583H21.1253C21.4126 25.4583 21.6882 25.3442 21.8914 25.141C22.0945 24.9379 22.2087 24.6623 22.2087 24.375V5.95833C22.2087 5.67102 22.0945 5.39547 21.8914 5.1923C21.6882 4.98914 21.4126 4.875 21.1253 4.875Z" fill="black"/>
<path d="M11.3747 20.0416V10.2916C11.3747 10.0043 11.2605 9.72872 11.0574 9.52555C10.8542 9.32239 10.5787 9.20825 10.2913 9.20825C10.004 9.20825 9.72847 9.32239 9.52531 9.52555C9.32214 9.72872 9.20801 10.0043 9.20801 10.2916V20.0416C9.20801 20.3289 9.32214 20.6045 9.52531 20.8076C9.72847 21.0108 10.004 21.1249 10.2913 21.1249C10.5787 21.1249 10.8542 21.0108 11.0574 20.8076C11.2605 20.6045 11.3747 20.3289 11.3747 20.0416Z" fill="black"/>
<path d="M16.7917 20.0416V10.2916C16.7917 10.0043 16.6775 9.72872 16.4744 9.52555C16.2712 9.32239 15.9957 9.20825 15.7083 9.20825C15.421 9.20825 15.1455 9.32239 14.9423 9.52555C14.7391 9.72872 14.625 10.0043 14.625 10.2916V20.0416C14.625 20.3289 14.7391 20.6045 14.9423 20.8076C15.1455 21.0108 15.421 21.1249 15.7083 21.1249C15.9957 21.1249 16.2712 21.0108 16.4744 20.8076C16.6775 20.6045 16.7917 20.3289 16.7917 20.0416Z" fill="black"/>
</svg>
