<svg width="46" height="46" viewBox="0 0 46 46" fill="none" xmlns="http://www.w3.org/2000/svg">
<path d="M24.0223 23.8079L27.3567 26.7618M24.0223 23.8079C24.0223 23.8079 28.1476 17.8075 31.2324 14.3253C33.8648 11.3537 38.2262 7.40892 39.4488 6.31574C39.637 6.14745 39.9183 6.14998 40.1073 6.3174L42.7931 8.69667C42.9764 8.85899 43.0172 9.12645 42.8851 9.33254C42.0118 10.6949 38.7719 15.6674 36.123 18.6577C33.0314 22.1475 27.3567 26.7618 27.3567 26.7618M24.0223 23.8079C23.2579 23.9243 21.1868 24.232 19.1185 26.2085C17.2832 27.9623 16.7595 28.4923 14.5899 28.5895C14.1957 28.6071 13.963 29.0383 14.2166 29.3406C16.5438 32.1145 21.1326 33.4069 24.0223 31.577C27.0397 29.6661 27.2762 27.7484 27.3567 26.7618" stroke="white" stroke-width="2"/>
<path d="M33 12.5V8H8V39H33V21.4769" stroke="white" stroke-width="2" stroke-linejoin="round"/>
<path d="M27.5 27L23.5 24L14.5 29.5L20.5 32.5L25 30.5L27.5 27Z" fill="white"/>
</svg>
