<svg width="46" height="46" viewBox="0 0 46 46" fill="none" xmlns="http://www.w3.org/2000/svg">
<ellipse cx="21.5" cy="10.5" rx="12.5" ry="4.5" stroke="white" stroke-width="2"/>
<path d="M34 11V34.5625C34 37.5655 28.4036 40 21.5 40C14.5964 40 9 37.5655 9 34.5625V11" stroke="white" stroke-width="2"/>
<path d="M34 15.1397C36.7692 15.1397 43 13.4134 43 22.0974C43 30.0948 37.4615 28.9423 34.6923 28.9423" stroke="white" stroke-width="2"/>
<path d="M21.0276 19.3617C21.1831 18.9135 21.8169 18.9135 21.9724 19.3617L23.4504 23.6224C23.4982 23.7601 23.6037 23.8701 23.7392 23.9236L27.8217 25.5349C28.2436 25.7014 28.2436 26.2986 27.8217 26.4651L23.7392 28.0764C23.6037 28.1299 23.4982 28.2399 23.4504 28.3776L21.9724 32.6383C21.8169 33.0865 21.1831 33.0865 21.0276 32.6383L19.5496 28.3776C19.5018 28.2399 19.3963 28.1299 19.2608 28.0764L15.1783 26.4651C14.7564 26.2986 14.7564 25.7014 15.1783 25.5349L19.2608 23.9236C19.3963 23.8701 19.5018 23.7601 19.5496 23.6224L21.0276 19.3617Z" fill="white"/>
</svg>
