<svg width="46" height="46" viewBox="0 0 46 46" fill="none" xmlns="http://www.w3.org/2000/svg">
<path d="M24.0223 23.8079L27.3567 26.7618M24.0223 23.8079C24.0223 23.8079 28.1476 17.8075 31.2324 14.3253C33.8648 11.3537 38.2262 7.40892 39.4488 6.31574C39.637 6.14745 39.9183 6.14998 40.1073 6.3174L42.7931 8.69667C42.9764 8.85899 43.0172 9.12645 42.8851 9.33254C42.0118 10.6949 38.7719 15.6674 36.123 18.6577C33.0314 22.1475 27.3567 26.7618 27.3567 26.7618M24.0223 23.8079C23.2579 23.9243 21.1868 24.232 19.1185 26.2085C17.2832 27.9623 16.7595 28.4923 14.5899 28.5895C14.1957 28.6071 13.963 29.0383 14.2166 29.3406C16.5438 32.1145 21.1326 33.4069 24.0223 31.577C27.0397 29.6661 27.2762 27.7484 27.3567 26.7618" stroke="white" stroke-width="2"/>
<path d="M20.9265 29.0087C20.6682 27.178 18.6666 27.2924 17.698 27.5785L16.0838 28.4366L13 28.8209C13.4305 29.2977 14.5139 30.3809 16.028 31.1647C16.9765 31.6556 18.8779 32.4147 20.481 32.4147C20.6962 31.9379 21.1848 30.8393 20.9265 29.0087Z" fill="white" stroke="white" stroke-width="2"/>
<path d="M34 11.0557V4.41467H6V41.4147H34V20.5" stroke="white" stroke-width="2" stroke-linejoin="round"/>
</svg>
