<svg width="46" height="46" viewBox="0 0 46 46" fill="none" xmlns="http://www.w3.org/2000/svg">
<path d="M24.1963 36.5C24.1963 36.8783 23.9826 37.2239 23.6445 37.3936C23.3065 37.5631 22.9018 37.5278 22.5986 37.3018C21.8325 36.7304 20.4175 36.232 18.5674 35.8359C16.7576 35.4485 14.6715 35.1865 12.6797 35.0107C10.692 34.8353 8.81895 34.7471 7.44141 34.7031C6.75335 34.6812 6.19009 34.6705 5.7998 34.665C5.60469 34.6623 5.45215 34.6608 5.34961 34.6602C5.29883 34.6598 5.26018 34.6593 5.23438 34.6592H5.19629C4.64402 34.6592 4.19629 34.2115 4.19629 33.6592V8.5C4.19629 7.94773 4.64402 7.50001 5.19629 7.5H5.24121C5.27011 7.50009 5.31298 7.50062 5.36816 7.50098C5.47875 7.50168 5.64117 7.50305 5.84766 7.50586C6.26055 7.51148 6.85289 7.52253 7.57324 7.54492C9.01328 7.58968 10.9716 7.67878 13.0381 7.8584C15.1 8.03763 17.2935 8.30851 19.1953 8.7207C21.041 9.12073 22.8078 9.69217 23.8467 10.5811C24.0685 10.771 24.1963 11.0487 24.1963 11.3408V36.5Z" stroke="white" stroke-width="2" stroke-linejoin="round"/>
<path d="M20.5 20.4998C20.5 20.86 20.3057 21.1924 19.9922 21.3699C19.6787 21.5473 19.2943 21.5425 18.9854 21.3572C17.9176 20.7165 15.9692 20.2479 14.1475 19.9441C13.2642 19.7968 12.4547 19.6947 11.8662 19.6296C11.5728 19.5972 11.3352 19.5743 11.1719 19.5593C11.0902 19.5518 11.0264 19.5462 10.9844 19.5427C10.9634 19.541 10.9477 19.5396 10.9375 19.5388C10.9327 19.5384 10.9291 19.538 10.9268 19.5378H10.9238C10.4027 19.498 10 19.0634 10 18.5408V12.0408C10 11.7756 10.1054 11.5213 10.293 11.3337C10.4805 11.1462 10.7348 11.0408 11 11.0408H11.0811C11.1317 11.0411 11.2052 11.0422 11.2988 11.0437C11.4862 11.0466 11.7545 11.0526 12.082 11.0642C12.7364 11.0875 13.6331 11.1345 14.5967 11.2283C15.5567 11.3217 16.6039 11.4628 17.5527 11.6814C18.472 11.8932 19.4185 12.2031 20.0889 12.6921C20.3469 12.8804 20.5 13.1804 20.5 13.4998V20.4998Z" stroke="white" stroke-width="2" stroke-linejoin="round"/>
<path d="M17.5 30.9998C17.5 31.3135 17.353 31.6096 17.1025 31.7986C16.8521 31.9875 16.5272 32.0477 16.2256 31.9617C14.5755 31.4901 12.5312 31.2453 10.8643 31.1218C10.0383 31.0606 9.31872 31.0307 8.80664 31.0154C8.55078 31.0077 8.34668 31.0036 8.20801 31.0017C8.1389 31.0008 8.08597 31 8.05078 30.9998H8C7.44776 30.9997 7.00001 30.552 7 29.9998V23.0408C7.00002 22.7635 7.11559 22.4984 7.31836 22.3093C7.52106 22.1204 7.79293 22.0245 8.06934 22.0437H8.0752C8.07842 22.0439 8.08298 22.0443 8.08887 22.0447C8.10108 22.0456 8.11947 22.0469 8.14258 22.0486C8.18871 22.052 8.25587 22.0574 8.3418 22.0642C8.51437 22.078 8.76304 22.0986 9.06836 22.1267C9.67858 22.183 10.5198 22.2691 11.4414 22.3884C13.2414 22.6215 15.4946 22.998 16.8848 23.5769C17.2573 23.7322 17.4999 24.0962 17.5 24.4998V30.9998Z" stroke="white" stroke-width="2" stroke-linejoin="round"/>
<path d="M24.1963 36.5C24.1963 36.8832 24.415 37.2332 24.7598 37.4004C25.1047 37.5675 25.5156 37.5227 25.8164 37.2852C26.528 36.7233 27.849 36.228 29.5918 35.833C31.2949 35.447 33.26 35.1853 35.1387 35.0098C37.0133 34.8346 38.7805 34.7471 40.0801 34.7031C40.729 34.6812 41.26 34.6705 41.6279 34.665C41.8118 34.6623 41.9552 34.6608 42.0518 34.6602C42.1 34.6598 42.1368 34.6593 42.1611 34.6592H42.1963C42.7486 34.6592 43.1963 34.2115 43.1963 33.6592V8.5C43.1963 7.94773 42.7486 7.50001 42.1963 7.5H42.1533C42.1259 7.50009 42.0855 7.50062 42.0332 7.50098C41.9285 7.50169 41.7753 7.50305 41.5801 7.50586C41.1896 7.51148 40.6295 7.5225 39.9482 7.54492C38.5868 7.58972 36.7347 7.6795 34.7803 7.85938C32.8307 8.03881 30.7537 8.31 28.9512 8.72363C27.2038 9.12465 25.5175 9.69995 24.5244 10.5996C24.3154 10.7892 24.1963 11.0586 24.1963 11.3408V36.5Z" stroke="white" stroke-width="2" stroke-linejoin="round"/>
<path d="M44 8.5V38C44 38 28 38 24 39.5" stroke="white" stroke-width="2" stroke-linecap="round" stroke-linejoin="round"/>
<path d="M3 8.5V38C3 38 19.5 38 23.5 39.5" stroke="white" stroke-width="2" stroke-linecap="round" stroke-linejoin="round"/>
<path d="M33.4813 12.3957C33.6013 11.9281 34.2382 11.8622 34.4515 12.2953L35.9598 15.3585C36.0268 15.4946 36.15 15.5947 36.297 15.6325L39.6042 16.4814C40.0718 16.6014 40.1377 17.2384 39.7046 17.4516L36.6414 18.9599C36.5052 19.0269 36.4052 19.1501 36.3674 19.2971L35.5185 22.6043C35.3985 23.0719 34.7615 23.1378 34.5483 22.7047L33.04 19.6415C32.9729 19.5054 32.8498 19.4053 32.7028 19.3676L29.3956 18.5186C28.928 18.3986 28.8621 17.7617 29.2952 17.5484L32.3584 16.0401C32.4945 15.9731 32.5946 15.8499 32.6323 15.7029L33.4813 12.3957Z" fill="white"/>
</svg>
