<svg width="44" height="46" viewBox="0 0 44 46" fill="none" xmlns="http://www.w3.org/2000/svg">
<path d="M32 35C32 35.3094 31.857 35.6016 31.6123 35.791C31.3677 35.9804 31.0485 36.0453 30.749 35.9678L13.749 31.5684C13.308 31.454 13 31.0553 13 30.5996V5C13 4.69061 13.143 4.39837 13.3877 4.20898C13.6323 4.01961 13.9515 3.95471 14.251 4.03223L31.251 8.43164C31.692 8.54595 32 8.94472 32 9.40039V35Z" stroke="white" stroke-width="2" stroke-linejoin="round"/>
<path d="M16.9287 36.6299C17.154 36.5025 17.4203 36.4667 17.6709 36.5312L31.25 40.0312C31.6448 40.1331 31.9378 40.4649 31.9912 40.8691C32.0446 41.2734 31.8471 41.6694 31.4922 41.8701L27.0713 44.3701C26.846 44.4975 26.5797 44.5333 26.3291 44.4688L12.75 40.9688C12.3552 40.8669 12.0622 40.5351 12.0088 40.1309C11.9554 39.7266 12.1529 39.3306 12.5078 39.1299L16.9287 36.6299Z" stroke="white" stroke-width="2" stroke-linejoin="round"/>
<path d="M20 33L24 34L24 41L20 40L20 33Z" fill="white"/>
<path d="M21.5079 15.4407C21.6682 14.9714 22.3318 14.9714 22.4921 15.4407L23.5434 18.5186C23.5924 18.662 23.7014 18.7768 23.842 18.8332L26.796 20.0173C27.2313 20.1919 27.2313 20.8081 26.796 20.9827L23.842 22.1668C23.7014 22.2232 23.5924 22.338 23.5434 22.4814L22.4921 25.5593C22.3318 26.0286 21.6682 26.0286 21.5079 25.5593L20.4566 22.4814C20.4076 22.338 20.2986 22.2232 20.158 22.1668L17.204 20.9827C16.7687 20.8081 16.7687 20.1919 17.204 20.0173L20.158 18.8332C20.2986 18.7768 20.4076 18.662 20.4566 18.5186L21.5079 15.4407Z" fill="white"/>
</svg>
