<svg width="65" height="61" viewBox="0 0 65 61" fill="none" xmlns="http://www.w3.org/2000/svg">
<rect x="7" y="12" width="28" height="24" rx="2" fill="black"/>
<path d="M37.5 18.0617C37.5 16.7605 38.7231 15.8057 39.9854 16.1212L55.9854 20.1212C56.8756 20.3439 57.5 21.144 57.5 22.0617V44.5001C57.5 45.6047 56.6046 46.5001 55.5 46.5001H54C54 42.9103 51.0899 40.0001 47.5 40.0001C43.9101 40.0001 41 42.9103 41 46.5001H39.5C38.3954 46.5001 37.5 45.6047 37.5 44.5001V18.0617Z" fill="black"/>
<path d="M33.5 38.5C34.6046 38.5 35.5 39.3954 35.5 40.5V44.5C35.5 45.6046 34.6046 46.5 33.5 46.5H28C28 42.9101 25.0899 40 21.5 40C17.9101 40 15 42.9101 15 46.5H11.5C10.3954 46.5 9.5 45.6046 9.5 44.5V40.5C9.5 39.3954 10.3954 38.5 11.5 38.5H33.5Z" fill="black"/>
<circle cx="47.5" cy="46.5" r="4.5" fill="black"/>
<circle cx="21.5" cy="46.5" r="4.5" fill="black"/>
<path d="M55 33H46V25H55V33Z" fill="#D9D9D9"/>
</svg>
