<svg width="29" height="29" viewBox="0 0 29 29" fill="none" xmlns="http://www.w3.org/2000/svg">
<path fill-rule="evenodd" clip-rule="evenodd" d="M25.5219 3.27097C24.1062 1.85532 21.8111 1.85531 20.3954 3.27097L18.3657 5.30073L8.81257 14.8537C8.65771 15.0087 8.54786 15.2027 8.49474 15.4151L7.28641 20.2485C7.18346 20.6603 7.30411 21.0959 7.60423 21.3959C7.90436 21.6961 8.33995 21.8168 8.75173 21.7138L13.585 20.5055C13.7976 20.4523 13.9915 20.3425 14.1464 20.1876L23.63 10.7041L25.7292 8.60481C27.1449 7.18916 27.1449 4.89393 25.7292 3.47828L25.5219 3.27097ZM22.1042 4.97981C22.5761 4.50793 23.3412 4.50793 23.8131 4.97981L24.0204 5.18712C24.4923 5.65901 24.4923 6.42409 24.0204 6.89597L22.7922 8.12426L20.9127 6.17137L22.1042 4.97981ZM19.2035 7.88052L21.083 9.83341L12.6743 18.2422L10.1194 18.8809L10.7581 16.326L19.2035 7.88052ZM4.83366 9.66654C4.83366 8.99921 5.37465 8.45821 6.04199 8.45821H12.0837C12.751 8.45821 13.292 7.91723 13.292 7.24988C13.292 6.58254 12.751 6.04154 12.0837 6.04154H6.04199C4.03997 6.04154 2.41699 7.66452 2.41699 9.66654V22.9582C2.41699 24.9603 4.03997 26.5832 6.04199 26.5832H19.3337C21.3357 26.5832 22.9587 24.9603 22.9587 22.9582V16.9165C22.9587 16.2493 22.4177 15.7082 21.7503 15.7082C21.083 15.7082 20.542 16.2493 20.542 16.9165V22.9582C20.542 23.6255 20.001 24.1665 19.3337 24.1665H6.04199C5.37465 24.1665 4.83366 23.6255 4.83366 22.9582V9.66654Z" fill="black"/>
</svg>
