<svg width="14" height="14" viewBox="0 0 14 14" fill="none" xmlns="http://www.w3.org/2000/svg">
<path d="M7 0C10.866 0 14 3.13401 14 7C14 10.866 10.866 14 7 14C3.13401 14 0 10.866 0 7C0 3.13401 3.13401 0 7 0ZM6.60059 10.1641C6.3126 10.1641 6.06816 10.2396 5.86816 10.3916C5.66824 10.5356 5.56836 10.7922 5.56836 11.1602C5.56839 11.5118 5.66847 11.7677 5.86816 11.9277C6.06816 12.0797 6.3126 12.1562 6.60059 12.1562C6.88055 12.1562 7.12033 12.0797 7.32031 11.9277C7.52028 11.7678 7.62106 11.5121 7.62109 11.1602C7.62109 10.7922 7.52031 10.5356 7.32031 10.3916C7.12039 10.2398 6.8804 10.1641 6.60059 10.1641ZM6.94824 3.31152C6.40439 3.31156 5.90414 3.37966 5.44824 3.51562C4.99239 3.6516 4.56865 3.82802 4.17676 4.04395L4.8125 5.32812C5.15638 5.15219 5.49242 5.01219 5.82031 4.9082C6.14824 4.80423 6.48048 4.75198 6.81641 4.75195C7.15241 4.75195 7.41268 4.82005 7.59668 4.95605C7.78864 5.08405 7.88477 5.27625 7.88477 5.53223C7.88473 5.70014 7.84833 5.85234 7.77637 5.98828C7.71235 6.12417 7.60403 6.26059 7.45215 6.39648C7.30822 6.53236 7.11664 6.68849 6.87695 6.86426C6.60507 7.05618 6.38477 7.24381 6.2168 7.42773C6.05685 7.61168 5.94017 7.8077 5.86816 8.01562C5.7962 8.22353 5.76078 8.45978 5.76074 8.72363V9.15625H7.30859V8.80762C7.30862 8.63979 7.32819 8.49961 7.36816 8.3877C7.41617 8.27572 7.50485 8.16001 7.63281 8.04004C7.7608 7.92006 7.94092 7.77635 8.17285 7.6084C8.48474 7.37648 8.74419 7.1599 8.95215 6.95996C9.16015 6.75196 9.3169 6.52809 9.4209 6.28809C9.52489 6.04809 9.57617 5.76353 9.57617 5.43555C9.57606 4.81983 9.34462 4.31199 8.88086 3.91211C8.42486 3.51211 7.78024 3.31152 6.94824 3.31152Z" fill="#B2B2B2"/>
</svg>
