<!DOCTYPE svg PUBLIC "-//W3C//DTD SVG 1.1//EN" "http://www.w3.org/Graphics/SVG/1.1/DTD/svg11.dtd">
<!-- Uploaded to: SVG Repo, www.svgrepo.com, Transformed by: SVG Repo Mixer Tools -->
<svg fill="#000000" width="800px" height="800px" viewBox="0 0 32 32" version="1.1" xmlns="http://www.w3.org/2000/svg" stroke="#000000" stroke-width="1.088">
<g id="SVGRepo_bgCarrier" stroke-width="0"/>
<g id="SVGRepo_tracerCarrier" stroke-linecap="round" stroke-linejoin="round"/>
<g id="SVGRepo_iconCarrier"> <title>shopping-bag</title> <path d="M28 9.25h-5.25v-1.117c0.004-0.087 0.006-0.189 0.006-0.292 0-3.643-2.953-6.596-6.596-6.596-0.082 0-0.164 0.002-0.246 0.004l0.012-0c-0.035-0.001-0.076-0.001-0.117-0.001-3.627 0-6.568 2.941-6.568 6.568 0 0.114 0.003 0.226 0.009 0.338l-0.001-0.016v1.111h-5.25c-1.518 0.002-2.748 1.232-2.75 2.75v14c0.003 2.622 2.128 4.747 4.75 4.75h20c2.622-0.003 4.747-2.128 4.75-4.75v-14c-0.002-1.518-1.232-2.748-2.75-2.75h-0zM10.75 8.133c-0.007-0.096-0.010-0.208-0.010-0.322 0-2.797 2.267-5.064 5.064-5.064 0.047 0 0.095 0.001 0.142 0.002l-0.007-0c0.066-0.003 0.143-0.005 0.22-0.005 2.816 0 5.1 2.283 5.1 5.1 0 0.104-0.003 0.207-0.009 0.309l0.001-0.014v1.111h-10.5zM29.25 26c-0.001 1.794-1.456 3.249-3.25 3.25h-20c-1.794-0.002-3.248-1.456-3.25-3.25v-14c0.001-0.69 0.56-1.249 1.25-1.25h5.25v6.25c0 0.414 0.336 0.75 0.75 0.75s0.75-0.336 0.75-0.75v0-6.25h10.5v6.25c0 0.414 0.336 0.75 0.75 0.75s0.75-0.336 0.75-0.75v0-6.25h5.25c0.69 0.001 1.249 0.56 1.25 1.25v0z"/> </g>
</svg>