<svg width="51" height="51" viewBox="0 0 51 51" fill="none" xmlns="http://www.w3.org/2000/svg">
<g clip-path="url(#clip0_1_8)">
<path d="M14.7266 29.5C13.7266 25 14.2265 19.5 14.2265 15C14.2266 10.5 56.7266 16 56.7266 16V39.2665C50.8932 37.9331 15.7422 34.0704 14.7266 29.5Z" fill="url(#paint0_linear_1_8)"/>
<path d="M14.2266 16.5C12.6266 12.1 17.6667 5.66667 21.5 3H56.7266V26C50.8932 24.6667 15.8266 20.9 14.2266 16.5Z" fill="#EEEEEE"/>
<path d="M31 3L22 20" stroke="#C0C0C0" stroke-width="0.3"/>
<path d="M22 26V33L35.5 36L49 38V30.5L22 26Z" fill="#2A2A2A"/>
<path d="M16.5 45L24 28.5L47.5 32.5L45 50L16.5 45Z" fill="#D9D9D9"/>
<path d="M19 43.5L25.5 28.5L46 32L43 47.5L19 43.5Z" fill="url(#paint1_linear_1_8)"/>
</g>
<defs>
<linearGradient id="paint0_linear_1_8" x1="15.2266" y1="21" x2="40.2266" y2="40.5" gradientUnits="userSpaceOnUse">
<stop stop-color="#D9D9D9"/>
<stop offset="1" stop-color="#737373"/>
</linearGradient>
<linearGradient id="paint1_linear_1_8" x1="31" y1="22" x2="43.5" y2="43.5" gradientUnits="userSpaceOnUse">
<stop stop-color="#F3AF74"/>
<stop offset="0.524039" stop-color="#BC2626"/>
<stop offset="1" stop-color="#E15DD4"/>
</linearGradient>
<clipPath id="clip0_1_8">
<rect width="51" height="51" fill="white"/>
</clipPath>
</defs>
</svg>
