<svg width="51" height="51" viewBox="0 0 51 51" fill="none" xmlns="http://www.w3.org/2000/svg">
<rect x="6" y="16" width="39" height="28" fill="url(#paint0_linear_3_16)"/>
<rect x="5" y="8" width="41" height="10" fill="#5B4D33"/>
<rect x="5" y="28" width="3" height="3" fill="#766443"/>
<rect x="43" y="39" width="3" height="3" fill="#766443"/>
<rect x="43" y="32" width="3" height="3" fill="#766443"/>
<rect x="10" y="22" width="22" height="22" fill="url(#paint1_linear_3_16)"/>
<rect x="33.65" y="27.65" width="8.7" height="16.7" fill="url(#paint2_linear_3_16)" stroke="white" stroke-width="0.7"/>
<circle cx="35.5" cy="36.5" r="0.5" fill="#D9D9D9"/>
<path d="M27.1495 26.097V30.891H24.71V28.3495H22.075V36.7475H23.6305V39H17.8675V36.7475H19.423V28.3495H16.7965V30.891H14.3485V26.097H27.1495Z" fill="white"/>
<path d="M12.392 16.12C12 16.12 11.666 16.066 11.39 15.958C11.118 15.846 10.902 15.686 10.742 15.478C10.586 15.27 10.484 15.018 10.436 14.722H10.16L10.376 13.864C10.436 14.116 10.61 14.326 10.898 14.494C11.186 14.658 11.528 14.74 11.924 14.74C12.232 14.74 12.462 14.688 12.614 14.584C12.766 14.476 12.842 14.32 12.842 14.116C12.842 13.908 12.744 13.748 12.548 13.636C12.356 13.52 12.008 13.434 11.504 13.378C10.476 13.25 9.728 12.996 9.26 12.616C8.796 12.236 8.564 11.744 8.564 11.14C8.564 10.572 8.76 10.116 9.152 9.772C9.544 9.428 10.092 9.256 10.796 9.256C11.156 9.256 11.458 9.31 11.702 9.418C11.946 9.522 12.134 9.678 12.266 9.886C12.402 10.094 12.49 10.346 12.53 10.642H12.806L12.596 11.476C12.536 11.212 12.376 11 12.116 10.84C11.856 10.68 11.556 10.6 11.216 10.6C10.944 10.6 10.74 10.652 10.604 10.756C10.468 10.856 10.4 10.984 10.4 11.14C10.4 11.336 10.52 11.492 10.76 11.608C11.004 11.724 11.38 11.816 11.888 11.884C12.872 12.008 13.582 12.246 14.018 12.598C14.454 12.95 14.672 13.446 14.672 14.086C14.672 14.718 14.48 15.216 14.096 15.58C13.712 15.94 13.144 16.12 12.392 16.12ZM8.552 16V13.864H10.376V16H8.552ZM12.596 11.476V9.37H14.42V11.476H12.596ZM18.2987 14.5H19.1027V16H15.4727V14.5H16.4687V8.02H15.4727V6.52H18.2987V14.5ZM20.9027 11.818L22.9547 14.5H23.6687V16H19.9787V14.5H20.8307L19.4207 12.598L20.9027 11.818ZM17.6927 14.338L17.2007 13.288L20.5907 10.888H19.2227V9.382H23.5787V10.888H22.7747L17.6927 14.338ZM27.1295 14.5H28.1195V16H24.2735V14.5H25.3055V8.02H24.2735V6.52H27.1295V14.5ZM32.3297 16.138C31.5977 16.138 30.9637 15.994 30.4277 15.706C29.8957 15.414 29.4857 15.012 29.1977 14.5C28.9097 13.984 28.7657 13.388 28.7657 12.712C28.7657 12.032 28.9097 11.432 29.1977 10.912C29.4857 10.388 29.8917 9.98 30.4157 9.688C30.9397 9.396 31.5577 9.25 32.2697 9.25C32.9817 9.25 33.5957 9.396 34.1117 9.688C34.6317 9.98 35.0317 10.386 35.3117 10.906C35.5917 11.426 35.7317 12.03 35.7317 12.718C35.7317 12.83 35.7317 12.926 35.7317 13.006C35.7317 13.086 35.7277 13.156 35.7197 13.216H33.9197C33.9317 13.128 33.9377 13.038 33.9377 12.946C33.9417 12.854 33.9437 12.75 33.9437 12.634C33.9437 12.266 33.8797 11.944 33.7517 11.668C33.6237 11.388 33.4357 11.172 33.1877 11.02C32.9437 10.864 32.6477 10.786 32.2997 10.786C31.9637 10.786 31.6697 10.866 31.4177 11.026C31.1657 11.182 30.9697 11.406 30.8297 11.698C30.6937 11.986 30.6257 12.324 30.6257 12.712C30.6257 13.068 30.6957 13.382 30.8357 13.654C30.9757 13.926 31.1717 14.14 31.4237 14.296C31.6797 14.448 31.9857 14.524 32.3417 14.524C32.7057 14.524 33.0177 14.444 33.2777 14.284C33.5417 14.12 33.7377 13.902 33.8657 13.63L35.6297 14.146C35.3817 14.762 34.9677 15.248 34.3877 15.604C33.8117 15.96 33.1257 16.138 32.3297 16.138ZM29.9237 13.216V12.094H34.6457L34.8437 13.216H29.9237ZM36.2678 18.52V17.02H37.2698V10.888H36.2678V9.388H39.0938V11.722L39.0578 12.508V12.844L39.0938 13.756V17.02H40.0418V18.52H36.2678ZM41.2418 16.138C40.7618 16.138 40.3178 16.034 39.9098 15.826C39.5058 15.614 39.1538 15.296 38.8538 14.872C38.5538 14.448 38.3238 13.918 38.1638 13.282L39.0578 12.706C39.0578 13.07 39.1218 13.39 39.2498 13.666C39.3818 13.942 39.5738 14.158 39.8258 14.314C40.0778 14.47 40.3818 14.548 40.7378 14.548C41.0898 14.548 41.3898 14.47 41.6378 14.314C41.8898 14.158 42.0818 13.942 42.2138 13.666C42.3498 13.386 42.4178 13.062 42.4178 12.694C42.4178 12.326 42.3478 12.002 42.2078 11.722C42.0718 11.442 41.8758 11.224 41.6198 11.068C41.3678 10.912 41.0738 10.834 40.7378 10.834C40.3858 10.834 40.0838 10.912 39.8318 11.068C39.5838 11.224 39.3918 11.444 39.2558 11.728C39.1238 12.008 39.0578 12.334 39.0578 12.706L38.8778 11.236H39.1538C39.2338 10.816 39.3638 10.458 39.5438 10.162C39.7278 9.866 39.9658 9.64 40.2578 9.484C40.5538 9.328 40.9098 9.25 41.3258 9.25C41.7778 9.25 42.1858 9.34 42.5498 9.52C42.9178 9.696 43.2318 9.942 43.4918 10.258C43.7518 10.574 43.9518 10.94 44.0918 11.356C44.2318 11.772 44.3018 12.218 44.3018 12.694C44.3018 13.394 44.1738 14.002 43.9178 14.518C43.6658 15.034 43.3098 15.434 42.8498 15.718C42.3938 15.998 41.8578 16.138 41.2418 16.138Z" fill="white"/>
<defs>
<linearGradient id="paint0_linear_3_16" x1="25.5" y1="16" x2="25.5" y2="44" gradientUnits="userSpaceOnUse">
<stop stop-color="#39301E"/>
<stop offset="0.432692" stop-color="#5B4D33"/>
</linearGradient>
<linearGradient id="paint1_linear_3_16" x1="18.5" y1="27" x2="29.5" y2="38" gradientUnits="userSpaceOnUse">
<stop offset="0.0769177" stop-color="#181818"/>
<stop offset="0.129803" stop-color="#535353"/>
<stop offset="0.259613" stop-color="#535353"/>
<stop offset="0.331729" stop-color="#181818"/>
<stop offset="0.548078" stop-color="#353535"/>
<stop offset="0.793274" stop-color="#181818"/>
</linearGradient>
<linearGradient id="paint2_linear_3_16" x1="36.7227" y1="29.5" x2="50.5" y2="41" gradientUnits="userSpaceOnUse">
<stop offset="0.0769177" stop-color="#181818"/>
<stop offset="0.129803" stop-color="#535353"/>
<stop offset="0.259613" stop-color="#535353"/>
<stop offset="0.331729" stop-color="#181818"/>
<stop offset="0.548078" stop-color="#353535"/>
<stop offset="0.793274" stop-color="#181818"/>
</linearGradient>
</defs>
</svg>
