<svg width="51" height="51" viewBox="0 0 51 51" fill="none" xmlns="http://www.w3.org/2000/svg">
<rect x="2.5" y="8.5" width="44" height="31" fill="url(#paint0_linear_3_16)" stroke="white"/>
<rect x="32.65" y="15.65" width="13.7" height="24.7" fill="url(#paint1_linear_3_16)" stroke="white" stroke-width="0.7"/>
<circle cx="35" cy="30" r="1" fill="#D9D9D9"/>
<path d="M8.252 26.08C7.72933 26.08 7.31333 25.972 7.004 25.756C6.69467 25.5373 6.512 25.2227 6.456 24.812H6.272L6.416 24.152C6.48267 24.4773 6.66667 24.736 6.968 24.928C7.26933 25.1173 7.63467 25.212 8.064 25.212C8.43733 25.212 8.72133 25.14 8.916 24.996C9.11067 24.852 9.208 24.6427 9.208 24.368C9.208 24.1787 9.16 24.0213 9.064 23.896C8.968 23.768 8.81333 23.6653 8.6 23.588C8.38933 23.508 8.10667 23.4453 7.752 23.4C7.22667 23.3333 6.78933 23.2187 6.44 23.056C6.09333 22.8907 5.83333 22.6787 5.66 22.42C5.48667 22.1613 5.4 21.8533 5.4 21.496C5.4 20.9893 5.568 20.5933 5.904 20.308C6.24 20.02 6.70533 19.876 7.3 19.876C7.63867 19.876 7.928 19.924 8.168 20.02C8.408 20.116 8.59733 20.26 8.736 20.452C8.87733 20.6413 8.964 20.8787 8.996 21.164H9.18L9.032 21.8C8.97067 21.48 8.796 21.224 8.508 21.032C8.22 20.8373 7.87333 20.74 7.468 20.74C7.14533 20.74 6.892 20.8027 6.708 20.928C6.52667 21.0507 6.436 21.2253 6.436 21.452C6.436 21.6067 6.48533 21.744 6.584 21.864C6.68267 21.9813 6.84 22.0827 7.056 22.168C7.272 22.2533 7.55467 22.3253 7.904 22.384C8.45333 22.4613 8.9 22.58 9.244 22.74C9.588 22.8973 9.84 23.1053 10 23.364C10.16 23.62 10.24 23.936 10.24 24.312C10.24 24.8693 10.0653 25.304 9.716 25.616C9.36933 25.9253 8.88133 26.08 8.252 26.08ZM5.408 26V24.152H6.416V26H5.408ZM9.032 21.8V19.96H10.04V21.8H9.032ZM12.4288 25.18H13.0408V26H10.7208V25.18H11.4528V20.5H10.7208V19.68H12.4288V25.18ZM14.0088 23.244L15.5048 25.18H16.0128V26H13.7008V25.18H14.3368L13.2608 23.736L14.0088 23.244ZM12.1208 24.896L11.8848 24.24L14.1928 22.476H13.1208V21.656H15.9608V22.476H15.3968L12.1208 24.896ZM18.2028 25.18H18.9508V26H16.4708V25.18H17.2268V20.5H16.4708V19.68H18.2028V25.18ZM21.7267 26.084C21.2574 26.084 20.852 25.9893 20.5107 25.8C20.172 25.608 19.9107 25.344 19.7267 25.008C19.5427 24.672 19.4507 24.284 19.4507 23.844C19.4507 23.3987 19.5427 23.0053 19.7267 22.664C19.9134 22.3227 20.1734 22.056 20.5067 21.864C20.8427 21.6693 21.236 21.572 21.6867 21.572C22.1427 21.572 22.5347 21.668 22.8627 21.86C23.1907 22.052 23.4427 22.3187 23.6187 22.66C23.7974 23.0013 23.8867 23.396 23.8867 23.844C23.8867 23.9187 23.8854 23.98 23.8827 24.028C23.8827 24.0733 23.88 24.112 23.8747 24.144H22.9107C22.916 24.0933 22.92 24.04 22.9227 23.984C22.9254 23.928 22.9267 23.8627 22.9267 23.788C22.9267 23.5213 22.8787 23.2853 22.7827 23.08C22.6867 22.8747 22.5467 22.7133 22.3627 22.596C22.1787 22.4787 21.956 22.42 21.6947 22.42C21.4467 22.42 21.228 22.48 21.0387 22.6C20.852 22.7173 20.7067 22.884 20.6027 23.1C20.4987 23.3133 20.4467 23.5613 20.4467 23.844C20.4467 24.1107 20.4974 24.3467 20.5987 24.552C20.7027 24.7573 20.8494 24.9187 21.0387 25.036C21.2307 25.1507 21.46 25.208 21.7267 25.208C22.0014 25.208 22.2374 25.1453 22.4347 25.02C22.632 24.892 22.7774 24.7213 22.8707 24.508L23.8067 24.816C23.6467 25.208 23.384 25.5173 23.0187 25.744C22.6534 25.9707 22.2227 26.084 21.7267 26.084ZM20.0707 24.144V23.46H23.4267L23.6147 24.144H20.0707ZM24.3305 27.68V26.86H25.0585V22.476H24.3305V21.656H26.0345V23.144L26.0105 23.696V23.916L26.0345 24.44V26.86H26.7385V27.68H24.3305ZM27.4745 26.088C27.1465 26.088 26.8478 26.0187 26.5785 25.88C26.3118 25.7387 26.0825 25.5293 25.8905 25.252C25.7012 24.9747 25.5598 24.6333 25.4665 24.228L26.0105 23.844C26.0105 24.116 26.0598 24.356 26.1585 24.564C26.2572 24.7693 26.3998 24.932 26.5865 25.052C26.7758 25.1693 27.0052 25.228 27.2745 25.228C27.5385 25.228 27.7638 25.1693 27.9505 25.052C28.1398 24.932 28.2852 24.768 28.3865 24.56C28.4878 24.3493 28.5385 24.1053 28.5385 23.828C28.5385 23.5507 28.4852 23.308 28.3785 23.1C28.2745 22.8893 28.1278 22.7253 27.9385 22.608C27.7492 22.4907 27.5278 22.432 27.2745 22.432C27.0105 22.432 26.7838 22.4907 26.5945 22.608C26.4078 22.7253 26.2638 22.8907 26.1625 23.104C26.0612 23.3147 26.0105 23.5613 26.0105 23.844L25.8865 22.848H26.0745C26.1252 22.584 26.2132 22.3573 26.3385 22.168C26.4638 21.976 26.6265 21.828 26.8265 21.724C27.0265 21.62 27.2665 21.568 27.5465 21.568C27.8452 21.568 28.1158 21.6253 28.3585 21.74C28.6038 21.852 28.8145 22.0107 28.9905 22.216C29.1665 22.4213 29.3025 22.6613 29.3985 22.936C29.4945 23.2107 29.5425 23.508 29.5425 23.828C29.5425 24.2787 29.4572 24.6747 29.2865 25.016C29.1185 25.3547 28.8785 25.6187 28.5665 25.808C28.2572 25.9947 27.8932 26.088 27.4745 26.088Z" fill="white"/>
<defs>
<linearGradient id="paint0_linear_3_16" x1="19.3864" y1="15.2727" x2="34.4995" y2="36.5256" gradientUnits="userSpaceOnUse">
<stop offset="0.0769177" stop-color="#181818"/>
<stop offset="0.129803" stop-color="#535353"/>
<stop offset="0.259613" stop-color="#535353"/>
<stop offset="0.331729" stop-color="#181818"/>
<stop offset="0.548078" stop-color="#353535"/>
<stop offset="0.793274" stop-color="#181818"/>
</linearGradient>
<linearGradient id="paint1_linear_3_16" x1="37.4244" y1="18.25" x2="58.3227" y2="37.1476" gradientUnits="userSpaceOnUse">
<stop offset="0.0769177" stop-color="#181818"/>
<stop offset="0.129803" stop-color="#535353"/>
<stop offset="0.259613" stop-color="#535353"/>
<stop offset="0.331729" stop-color="#181818"/>
<stop offset="0.548078" stop-color="#353535"/>
<stop offset="0.793274" stop-color="#181818"/>
</linearGradient>
</defs>
</svg>
