<svg width="52" height="52" viewBox="0 0 52 52" fill="none" xmlns="http://www.w3.org/2000/svg">
<g clip-path="url(#clip0_4_19)">
<rect width="32.4" height="19.2" transform="translate(12 21.6)" fill="#222898"/>
<rect x="14.4" y="24" width="16.8" height="2.4" fill="#FCFCFC"/>
<rect x="14.4" y="30" width="8.4" height="2.4" fill="#FCFCFC"/>
<rect x="14.4" y="33.6" width="9.6" height="2.4" fill="#FCFCFC"/>
<path d="M31.2 40.8L35.4 21.6H48.6V40.8H31.2Z" fill="url(#paint0_linear_4_19)"/>
</g>
<g clip-path="url(#clip1_4_19)">
<rect width="32.4" height="19.2" transform="translate(6 16.1694) rotate(-9.53922)" fill="#161616"/>
<rect x="8.76456" y="18.1385" width="16.8" height="2.4" transform="rotate(-9.53922 8.76456 18.1385)" fill="#CFA12E"/>
<rect x="9.75888" y="24.0555" width="8.4" height="2.4" transform="rotate(-9.53922 9.75888 24.0555)" fill="#CFA12E"/>
<rect x="10.3555" y="27.6057" width="9.6" height="2.4" transform="rotate(-9.53922 10.3555 27.6057)" fill="#CFA12E"/>
<path d="M28.1164 31.9221L29.0764 12.2915L42.0939 10.104L45.2758 29.0385L28.1164 31.9221Z" fill="url(#paint1_linear_4_19)"/>
</g>
<defs>
<linearGradient id="paint0_linear_4_19" x1="39.9" y1="21.6" x2="45.6" y2="40.2" gradientUnits="userSpaceOnUse">
<stop stop-color="#3F76BF"/>
<stop offset="1" stop-color="#1D3759"/>
</linearGradient>
<linearGradient id="paint1_linear_4_19" x1="33.5142" y1="11.5458" x2="36.6961" y2="30.4803" gradientUnits="userSpaceOnUse">
<stop stop-color="#9E2C2C"/>
<stop offset="1" stop-color="#591D1D"/>
</linearGradient>
<clipPath id="clip0_4_19">
<rect width="32.4" height="19.2" fill="white" transform="translate(12 21.6)"/>
</clipPath>
<clipPath id="clip1_4_19">
<rect width="32.4" height="19.2" fill="white" transform="translate(6 16.1694) rotate(-9.53922)"/>
</clipPath>
</defs>
</svg>
